<?xml version="1.0" encoding="UTF-8" standalone="no"?>
<!-- Created with Inkscape (http://www.inkscape.org/) -->

<svg
   width="180"
   height="30"
   viewBox="0 0 47.624999 7.9375"
   version="1.1"
   id="svg1"
   inkscape:version="1.4.2 (f4327f4, 2025-05-13)"
   sodipodi:docname="Sign-in-with-Bluesky-ja.svg"
   xml:space="preserve"
   xmlns:inkscape="http://www.inkscape.org/namespaces/inkscape"
   xmlns:sodipodi="http://sodipodi.sourceforge.net/DTD/sodipodi-0.dtd"
   xmlns="http://www.w3.org/2000/svg"
   xmlns:svg="http://www.w3.org/2000/svg"><sodipodi:namedview
     id="namedview1"
     pagecolor="#ffffff"
     bordercolor="#000000"
     borderopacity="0.25"
     inkscape:showpageshadow="2"
     inkscape:pageopacity="0.0"
     inkscape:pagecheckerboard="0"
     inkscape:deskcolor="#d1d1d1"
     inkscape:document-units="px"
     inkscape:zoom="2.8756734"
     inkscape:cx="144.4879"
     inkscape:cy="85.371308"
     inkscape:window-width="1920"
     inkscape:window-height="1009"
     inkscape:window-x="1912"
     inkscape:window-y="100"
     inkscape:window-maximized="1"
     inkscape:current-layer="layer1" /><defs
     id="defs1" /><g
     inkscape:label="common-design"
     inkscape:groupmode="layer"
     id="layer1"><rect
       style="fill:#1083fe;fill-opacity:1;stroke:#1083fe;stroke-width:0.257991;stroke-linejoin:round;stroke-dasharray:none;stroke-opacity:1"
       id="rect1"
       width="47.367008"
       height="7.6795087"
       x="0.1289961"
       y="0.1289961"
       inkscape:label="background"
       ry="2.1166666" /><text
       xml:space="preserve"
       style="font-style:normal;font-variant:normal;font-weight:normal;font-stretch:normal;font-size:3.175px;font-family:'Noto Sans';-inkscape-font-specification:'Noto Sans';text-align:start;writing-mode:lr-tb;direction:ltr;text-anchor:start;fill:#ffffff;fill-opacity:1;stroke:#ffffff;stroke-width:0.176389;stroke-linejoin:round;stroke-dasharray:none;stroke-dashoffset:0;stroke-opacity:1"
       x="11.951033"
       y="4.9554734"
       id="text"
       inkscape:label="text"><tspan
         sodipodi:role="line"
         id="tspan3"
         style="font-style:normal;font-variant:normal;font-weight:normal;font-stretch:normal;font-family:'Noto Sans JP';-inkscape-font-specification:'Noto Sans JP';stroke-width:0.176389;stroke-dasharray:none;stroke-dashoffset:0"
         x="11.951033"
         y="4.9554734"><tspan
   id="tspan8"
   style="font-style:normal;font-variant:normal;font-weight:normal;font-stretch:normal;font-family:'Noto Sans';-inkscape-font-specification:'Noto Sans';stroke-width:0.176389">Bluesky </tspan>でサインイン</tspan></text><path
       d="m 5.4155436,2.1370388 c 0.485341,0.4138246 1.007381,1.2528887 1.199047,1.7031792 0.191682,-0.4502574 0.713693,-1.2893629 1.199048,-1.7031792 0.350197,-0.2985994 0.917607,-0.5296386 0.917607,0.2055404 0,0.1468253 -0.07412,1.2334081 -0.117592,1.4098106 -0.151106,0.6132971 -0.701736,0.7697217 -1.19153,0.6750463 0.85615,0.1654933 1.073947,0.7136675 0.60359,1.2618413 -0.893301,1.04109 -1.283933,-0.2612131 -1.384073,-0.5949105 -0.01835,-0.061175 -0.02694,-0.089793 -0.02706,-0.065458 -1.27e-4,-0.024336 -0.0087,0.00428 -0.02706,0.065459 -0.100096,0.3336966 -0.490721,1.6360325 -1.384073,0.5949095 -0.470364,-0.5481736 -0.252575,-1.0963809 0.60359,-1.2618411 -0.489808,0.094675 -1.040445,-0.06175 -1.19153,-0.6750463 -0.04347,-0.176419 -0.117591,-1.263002 -0.117591,-1.4098106 0,-0.735179 0.567423,-0.5041398 0.917606,-0.2055404 z"
       fill="#1185fe"
       id="path1"
       style="display:inline;fill:#ffffff;fill-opacity:1;stroke-width:0.00777847"
       inkscape:label="butterfly" /></g></svg>
