<?xml version="1.0" encoding="UTF-8" standalone="no"?>
<!-- Created with Inkscape (http://www.inkscape.org/) -->

<svg
   width="180"
   height="30"
   viewBox="0 0 47.624999 7.9375"
   version="1.1"
   id="svg1"
   inkscape:version="1.4.2 (f4327f4, 2025-05-13)"
   sodipodi:docname="Login-with-Bluesky-en.svg"
   xml:space="preserve"
   xmlns:inkscape="http://www.inkscape.org/namespaces/inkscape"
   xmlns:sodipodi="http://sodipodi.sourceforge.net/DTD/sodipodi-0.dtd"
   xmlns="http://www.w3.org/2000/svg"
   xmlns:svg="http://www.w3.org/2000/svg"><sodipodi:namedview
     id="namedview1"
     pagecolor="#ffffff"
     bordercolor="#000000"
     borderopacity="0.25"
     inkscape:showpageshadow="2"
     inkscape:pageopacity="0.0"
     inkscape:pagecheckerboard="0"
     inkscape:deskcolor="#d1d1d1"
     inkscape:document-units="px"
     inkscape:zoom="2.8756734"
     inkscape:cx="144.4879"
     inkscape:cy="85.371308"
     inkscape:window-width="1920"
     inkscape:window-height="1009"
     inkscape:window-x="1912"
     inkscape:window-y="100"
     inkscape:window-maximized="1"
     inkscape:current-layer="layer1" /><defs
     id="defs1" /><g
     inkscape:label="common-design"
     inkscape:groupmode="layer"
     id="layer1"><rect
       style="fill:#1083fe;fill-opacity:1;stroke:#1083fe;stroke-width:0.257991;stroke-linejoin:round;stroke-dasharray:none;stroke-opacity:1"
       id="rect1"
       width="47.367008"
       height="7.6795087"
       x="0.1289961"
       y="0.1289961"
       inkscape:label="background"
       ry="2.1166666" /><path
       d="M 12.259008,4.9554734 V 2.6885235 h 0.28575 v 2.0129499 h 0.9906 v 0.254 z m 3.10515,-0.854075 q 0,0.422275 -0.2159,0.65405 -0.212725,0.231775 -0.57785,0.231775 -0.225425,0 -0.403225,-0.1016 -0.174625,-0.104775 -0.276225,-0.301625 -0.1016,-0.200025 -0.1016,-0.4826 0,-0.422275 0.20955,-0.650875 0.212725,-0.2286 0.581025,-0.2286 0.2286,0 0.4064,0.104775 0.1778,0.1016 0.276225,0.29845 0.1016,0.193675 0.1016,0.47625 z m -1.285875,0 q 0,0.301625 0.117475,0.479425 0.12065,0.174625 0.381,0.174625 0.257175,0 0.377825,-0.174625 0.12065,-0.1778 0.12065,-0.479425 0,-0.301625 -0.12065,-0.473075 -0.12065,-0.17145 -0.381,-0.17145 -0.26035,0 -0.377825,0.17145 -0.117475,0.17145 -0.117475,0.473075 z m 2.330449,-0.879475 q 0.168275,0 0.301625,0.0635 0.136525,0.0635 0.231775,0.193675 h 0.01587 l 0.0381,-0.225425 h 0.22225 v 1.730375 q 0,0.365125 -0.187325,0.549275 -0.18415,0.18415 -0.574675,0.18415 -0.37465,0 -0.612775,-0.10795 v -0.257175 q 0.250825,0.13335 0.62865,0.13335 0.219075,0 0.3429,-0.130175 0.127,-0.127 0.127,-0.34925 v -0.066675 q 0,-0.0381 0.0032,-0.10795 0.0032,-0.073025 0.0064,-0.1016 h -0.0127 q -0.17145,0.257175 -0.52705,0.257175 -0.3302,0 -0.517525,-0.231775 -0.18415,-0.231775 -0.18415,-0.6477 0,-0.4064 0.18415,-0.644525 0.187325,-0.2413 0.51435,-0.2413 z m 0.0381,0.23495 q -0.212725,0 -0.3302,0.17145 -0.117475,0.168275 -0.117475,0.4826 0,0.314325 0.1143,0.4826 0.1143,0.1651 0.339725,0.1651 0.257175,0 0.37465,-0.136525 0.117475,-0.1397 0.117475,-0.447675 v -0.066675 q 0,-0.346075 -0.12065,-0.498475 -0.12065,-0.1524 -0.377825,-0.1524 z m 1.454149,-0.8413749 q 0.0635,0 0.111125,0.04445 0.0508,0.041275 0.0508,0.13335 0,0.092075 -0.0508,0.136525 -0.04763,0.041275 -0.111125,0.041275 -0.06985,0 -0.117475,-0.041275 -0.04763,-0.04445 -0.04763,-0.136525 0,-0.092075 0.04763,-0.13335 0.04763,-0.04445 0.117475,-0.04445 z m 0.136525,0.6381749 v 1.7018 h -0.2794 v -1.7018 z m 1.358898,-0.03175 q 0.3048,0 0.460375,0.149225 0.155575,0.149225 0.155575,0.47625 v 1.108075 h -0.276225 v -1.089025 q 0,-0.409575 -0.381,-0.409575 -0.282575,0 -0.390525,0.15875 -0.10795,0.15875 -0.10795,0.4572 v 0.88265 h -0.2794 v -1.7018 h 0.225425 l 0.04127,0.231775 h 0.01588 q 0.08255,-0.13335 0.2286,-0.19685 0.14605,-0.066675 0.307975,-0.066675 z m 3.359151,1.730375 -0.2921,-0.95885 q -0.04127,-0.130175 -0.07303,-0.254 -0.03175,-0.123825 -0.04445,-0.19685 h -0.0127 q -0.0127,0.073025 -0.04127,0.19685 -0.02858,0.123825 -0.07303,0.257175 l -0.3048,0.955675 h -0.3175 l -0.466725,-1.7018 h 0.288925 l 0.23495,0.90805 q 0.03493,0.136525 0.06668,0.276225 0.03175,0.1397 0.04445,0.231775 h 0.0127 q 0.0095,-0.053975 0.02858,-0.13335 0.01905,-0.079375 0.04128,-0.1651 0.02222,-0.0889 0.04445,-0.15875 l 0.301625,-0.95885 h 0.3048 l 0.2921,0.95885 q 0.03175,0.111125 0.06668,0.238125 0.03493,0.127 0.04763,0.2159 h 0.0127 q 0.0095,-0.079375 0.04127,-0.219075 0.03493,-0.1397 0.07303,-0.28575 l 0.238125,-0.90805 h 0.28575 l -0.473075,1.7018 z m 1.247772,-2.3367999 q 0.0635,0 0.111125,0.04445 0.0508,0.041275 0.0508,0.13335 0,0.092075 -0.0508,0.136525 -0.04763,0.041275 -0.111125,0.041275 -0.06985,0 -0.117475,-0.041275 -0.04763,-0.04445 -0.04763,-0.136525 0,-0.092075 0.04763,-0.13335 0.04763,-0.04445 0.117475,-0.04445 z m 0.136525,0.6381749 v 1.7018 h -0.2794 v -1.7018 z m 1.108073,1.50495 q 0.0635,0 0.130175,-0.00953 0.06668,-0.00953 0.10795,-0.0254 v 0.212725 q -0.04445,0.022225 -0.127,0.034925 -0.08255,0.015875 -0.15875,0.015875 -0.13335,0 -0.24765,-0.04445 -0.111125,-0.047625 -0.180975,-0.161925 -0.06985,-0.1143 -0.06985,-0.320675 v -0.9906 h -0.2413 v -0.13335 L 24.705,3.2250984 24.816125,2.8631485 h 0.1651 v 0.3905249 h 0.492125 v 0.2159 h -0.492125 v 0.98425 q 0,0.155575 0.07303,0.231775 0.0762,0.073025 0.193675,0.073025 z m 0.857251,-2.2161499 v 0.7080249 q 0,0.127 -0.01588,0.238125 h 0.01905 q 0.08255,-0.130175 0.22225,-0.19685 0.142875,-0.066675 0.307975,-0.066675 0.307975,0 0.46355,0.149225 0.15875,0.14605 0.15875,0.473075 v 1.108075 h -0.276225 v -1.089025 q 0,-0.409575 -0.381,-0.409575 -0.28575,0 -0.3937,0.161925 -0.104775,0.15875 -0.104775,0.4572 v 0.879475 h -0.2794 V 2.5424735 Z m 2.546351,0.14605 h 0.6477 q 0.422275,0 0.64135,0.127 0.219075,0.127 0.219075,0.4349749 0,0.200025 -0.111125,0.333375 -0.111125,0.130175 -0.320675,0.168275 v 0.015875 q 0.142875,0.0254 0.257175,0.085725 0.117475,0.060325 0.18415,0.17145 0.06668,0.111125 0.06668,0.28575 0,0.307975 -0.212725,0.47625 -0.20955,0.168275 -0.574675,0.168275 h -0.796925 z m 0.28575,0.9651999 h 0.4191 q 0.288925,0 0.396875,-0.092075 0.111125,-0.09525 0.111125,-0.2794 0,-0.1873249 -0.13335,-0.2666999 -0.130175,-0.08255 -0.4191,-0.08255 h -0.37465 z m 0,0.238125 v 0.822325 h 0.4572 q 0.301625,0 0.4191,-0.117475 0.117475,-0.117475 0.117475,-0.307975 0,-0.1778 -0.123825,-0.28575 -0.12065,-0.111125 -0.434975,-0.111125 z m 2.019299,1.063625 h -0.2794 V 2.5424735 h 0.2794 z m 1.962147,-1.7018 v 1.7018 h -0.2286 l -0.04127,-0.225425 h -0.0127 q -0.08255,0.13335 -0.2286,0.19685 -0.14605,0.060325 -0.31115,0.060325 -0.307975,0 -0.46355,-0.14605 -0.155575,-0.149225 -0.155575,-0.473075 v -1.114425 h 0.282575 v 1.095375 q 0,0.4064 0.377825,0.4064 0.282575,0 0.390525,-0.15875 0.111125,-0.15875 0.111125,-0.4572 v -0.885825 z m 1.196976,-0.03175 q 0.2159,0 0.37465,0.09525 0.15875,0.09525 0.2413,0.269875 0.08573,0.17145 0.08573,0.403225 v 0.168275 h -1.165225 q 0.0063,0.288925 0.14605,0.441325 0.142875,0.149225 0.396875,0.149225 0.161925,0 0.28575,-0.028575 0.127,-0.03175 0.26035,-0.0889 v 0.244475 q -0.130175,0.05715 -0.257175,0.08255 -0.127,0.028575 -0.301625,0.028575 -0.244475,0 -0.428625,-0.098425 -0.18415,-0.098425 -0.288925,-0.2921 -0.1016,-0.193675 -0.1016,-0.479425 0,-0.2794 0.09207,-0.479425 0.09525,-0.200025 0.263525,-0.307975 0.17145,-0.10795 0.396875,-0.10795 z m -0.0032,0.2286 q -0.200025,0 -0.3175,0.130175 -0.1143,0.127 -0.136525,0.3556 h 0.866775 q -0.0032,-0.2159 -0.1016,-0.34925 -0.09842,-0.136525 -0.31115,-0.136525 z m 2.244722,1.03505 q 0,0.24765 -0.18415,0.37465 -0.18415,0.127 -0.4953,0.127 -0.1778,0 -0.307975,-0.028575 -0.127,-0.028575 -0.225425,-0.079375 v -0.254 q 0.1016,0.0508 0.244475,0.09525 0.14605,0.041275 0.295275,0.041275 0.212725,0 0.307975,-0.066675 0.09525,-0.06985 0.09525,-0.18415 0,-0.0635 -0.03492,-0.1143 -0.03493,-0.0508 -0.127,-0.1016 -0.0889,-0.0508 -0.257175,-0.1143 -0.1651,-0.0635 -0.282575,-0.127 -0.117475,-0.0635 -0.180975,-0.1524 -0.0635,-0.0889 -0.0635,-0.2286 0,-0.2159 0.174625,-0.333375 0.1778,-0.117475 0.46355,-0.117475 0.155575,0 0.288925,0.03175 0.136525,0.03175 0.254,0.08255 l -0.09525,0.22225 q -0.10795,-0.04445 -0.225425,-0.0762 -0.117475,-0.03175 -0.2413,-0.03175 -0.17145,0 -0.263525,0.05715 -0.0889,0.053975 -0.0889,0.149225 0,0.073025 0.04127,0.12065 0.04127,0.047625 0.136525,0.09525 0.09842,0.047625 0.26035,0.10795 0.161925,0.060325 0.276225,0.123825 0.1143,0.0635 0.174625,0.155575 0.06033,0.0889 0.06033,0.225425 z m 0.688976,-1.9430999 v 1.2604749 q 0,0.0508 -0.0063,0.13335 -0.0032,0.08255 -0.0064,0.142875 h 0.0127 q 0.01905,-0.0254 0.05715,-0.073025 0.0381,-0.047625 0.0762,-0.09525 0.04127,-0.0508 0.06985,-0.08255 l 0.542925,-0.574675 h 0.327025 l -0.688975,0.727075 0.7366,0.974725 h -0.33655 l -0.59055,-0.79375 -0.193675,0.168275 v 0.625475 H 36.769997 V 2.5424735 Z m 1.152525,0.7111999 h 0.29845 l 0.3683,0.968375 q 0.04763,0.130175 0.08573,0.244475 0.0381,0.1143 0.05715,0.219075 h 0.0127 q 0.01905,-0.079375 0.06033,-0.206375 0.04127,-0.130175 0.08572,-0.26035 l 0.346075,-0.9652 h 0.301625 l -0.733425,1.93675 q -0.09208,0.2413 -0.231775,0.384175 -0.1397,0.142875 -0.38735,0.142875 -0.0762,0 -0.13335,-0.00953 -0.05715,-0.00635 -0.09842,-0.015875 v -0.22225 q 0.03493,0.00635 0.08255,0.0127 0.0508,0.00635 0.104775,0.00635 0.14605,0 0.23495,-0.08255 0.0889,-0.08255 0.142875,-0.219075 l 0.0889,-0.225425 z"
       id="text"
       style="font-size:3.175px;font-family:'Noto Sans';-inkscape-font-specification:'Noto Sans';fill:#ffffff;stroke:#ffffff;stroke-width:0.176389;stroke-linejoin:round"
       inkscape:label="text"
       aria-label="Login with Bluesky" /><path
       d="M 5.4155475,2.1370388 C 5.9008889,2.5508634 6.4229288,3.3899275 6.6145954,3.840218 6.8062768,3.3899606 7.3282878,2.5508551 7.8136434,2.1370388 8.1638407,1.8384394 8.7312497,1.6074002 8.7312497,2.3425792 c 0,0.1468253 -0.07412,1.2334081 -0.117591,1.4098106 C 8.4625517,4.3656869 7.9119218,4.5221115 7.4221281,4.4274361 8.2782787,4.5929294 8.4960747,5.1411036 8.0257176,5.6892773 7.1324168,6.730367 6.7417846,5.4280643 6.6416449,5.0943669 6.6232956,5.0331917 6.6147098,5.0045739 6.6145827,5.0289091 6.6144558,5.0045731 6.6058716,5.0331846 6.5875205,5.0943677 6.4874254,5.4280643 6.0968004,6.7304003 5.2034483,5.6892773 4.7330842,5.1411036 4.9508733,4.5928963 5.8070379,4.4274361 5.3172297,4.5221115 4.766593,4.3656861 4.6155077,3.7523898 4.5720346,3.5759708 4.4979166,2.4893878 4.4979166,2.3425792 c 0,-0.735179 0.5674239,-0.5041398 0.917606,-0.2055404 z"
       fill="#1185fe"
       id="path1"
       style="display:inline;fill:#ffffff;fill-opacity:1;stroke-width:0.00777847"
       inkscape:label="butterfly" /></g></svg>
