<?xml version="1.0" encoding="UTF-8" standalone="no"?>
<!-- Created with Inkscape (http://www.inkscape.org/) -->

<svg
   width="180"
   height="30"
   viewBox="0 0 47.624999 7.9375"
   version="1.1"
   id="svg1"
   inkscape:version="1.4.2 (f4327f4, 2025-05-13)"
   sodipodi:docname="Sign-in-with-Bluesky-en.svg"
   xml:space="preserve"
   xmlns:inkscape="http://www.inkscape.org/namespaces/inkscape"
   xmlns:sodipodi="http://sodipodi.sourceforge.net/DTD/sodipodi-0.dtd"
   xmlns="http://www.w3.org/2000/svg"
   xmlns:svg="http://www.w3.org/2000/svg"><sodipodi:namedview
     id="namedview1"
     pagecolor="#ffffff"
     bordercolor="#000000"
     borderopacity="0.25"
     inkscape:showpageshadow="2"
     inkscape:pageopacity="0.0"
     inkscape:pagecheckerboard="0"
     inkscape:deskcolor="#d1d1d1"
     inkscape:document-units="px"
     inkscape:zoom="2.8756734"
     inkscape:cx="144.4879"
     inkscape:cy="85.371308"
     inkscape:window-width="1920"
     inkscape:window-height="1009"
     inkscape:window-x="1912"
     inkscape:window-y="100"
     inkscape:window-maximized="1"
     inkscape:current-layer="layer1" /><defs
     id="defs1" /><g
     inkscape:label="common-design"
     inkscape:groupmode="layer"
     id="layer1"><rect
       style="fill:#1083fe;fill-opacity:1;stroke:#1083fe;stroke-width:0.257991;stroke-linejoin:round;stroke-dasharray:none;stroke-opacity:1"
       id="rect1"
       width="47.367008"
       height="7.6795087"
       x="0.1289961"
       y="0.1289961"
       inkscape:label="background"
       ry="2.1166666" /><path
       d="m 13.544883,4.3490484 q 0,0.301625 -0.219075,0.4699 -0.219075,0.168275 -0.59055,0.168275 -0.1905,0 -0.352425,-0.028575 -0.161925,-0.028575 -0.269875,-0.079375 v -0.27305 q 0.1143,0.0508 0.282575,0.092075 0.17145,0.041275 0.352425,0.041275 0.250825,0 0.381,-0.098425 0.130175,-0.098425 0.130175,-0.2667 0,-0.111125 -0.04763,-0.187325 -0.04763,-0.0762 -0.1651,-0.1397 -0.117475,-0.0635 -0.320675,-0.1397 -0.2921,-0.104775 -0.43815,-0.257175 -0.14605,-0.1524 -0.14605,-0.415925 0,-0.1777999 0.09207,-0.3079749 0.09207,-0.130175 0.254,-0.200025 0.161925,-0.06985 0.377825,-0.06985 0.18415,0 0.339725,0.034925 0.155575,0.034925 0.28575,0.092075 l -0.0889,0.244475 q -0.117475,-0.0508 -0.257175,-0.085725 -0.1397,-0.034925 -0.28575,-0.034925 -0.212725,0 -0.320675,0.092075 -0.10795,0.0889 -0.10795,0.2381249 0,0.1143 0.04763,0.1905 0.04763,0.0762 0.155575,0.1397 0.10795,0.060325 0.2921,0.127 0.200025,0.073025 0.33655,0.15875 0.1397,0.08255 0.20955,0.200025 0.07303,0.117475 0.07303,0.295275 z m 0.561974,-1.7335499 q 0.0635,0 0.111125,0.04445 0.0508,0.041275 0.0508,0.13335 0,0.092075 -0.0508,0.136525 -0.04763,0.041275 -0.111125,0.041275 -0.06985,0 -0.117475,-0.041275 -0.04763,-0.04445 -0.04763,-0.136525 0,-0.092075 0.04763,-0.13335 0.04762,-0.04445 0.117475,-0.04445 z m 0.136525,0.6381749 v 1.7018 h -0.2794 v -1.7018 z m 1.142998,-0.03175 q 0.168275,0 0.301625,0.0635 0.136525,0.0635 0.231775,0.193675 h 0.01588 l 0.0381,-0.225425 h 0.22225 v 1.730375 q 0,0.365125 -0.187325,0.549275 -0.18415,0.18415 -0.574675,0.18415 -0.37465,0 -0.612775,-0.10795 v -0.257175 q 0.250825,0.13335 0.62865,0.13335 0.219075,0 0.3429,-0.130175 0.127,-0.127 0.127,-0.34925 v -0.066675 q 0,-0.0381 0.0032,-0.10795 0.0032,-0.073025 0.0063,-0.1016 h -0.0127 q -0.17145,0.257175 -0.52705,0.257175 -0.3302,0 -0.517525,-0.231775 -0.18415,-0.231775 -0.18415,-0.6477 0,-0.4064 0.18415,-0.644525 0.187325,-0.2413 0.51435,-0.2413 z m 0.0381,0.23495 q -0.212725,0 -0.3302,0.17145 -0.117475,0.168275 -0.117475,0.4826 0,0.314325 0.1143,0.4826 0.1143,0.1651 0.339725,0.1651 0.257175,0 0.37465,-0.136525 0.117475,-0.1397 0.117475,-0.447675 v -0.066675 q 0,-0.346075 -0.12065,-0.498475 -0.12065,-0.1524 -0.377825,-0.1524 z m 2.130424,-0.23495 q 0.3048,0 0.460375,0.149225 0.155575,0.149225 0.155575,0.47625 v 1.108075 h -0.276225 v -1.089025 q 0,-0.409575 -0.381,-0.409575 -0.282575,0 -0.390525,0.15875 -0.10795,0.15875 -0.10795,0.4572 v 0.88265 h -0.2794 v -1.7018 h 0.225425 l 0.04127,0.231775 h 0.01588 q 0.08255,-0.13335 0.2286,-0.19685 0.14605,-0.066675 0.307975,-0.066675 z M 19.66628,2.6154985 q 0.0635,0 0.111125,0.04445 0.0508,0.041275 0.0508,0.13335 0,0.092075 -0.0508,0.136525 -0.04763,0.041275 -0.111125,0.041275 -0.06985,0 -0.117475,-0.041275 -0.04763,-0.04445 -0.04763,-0.136525 0,-0.092075 0.04763,-0.13335 0.04763,-0.04445 0.117475,-0.04445 z m 0.136525,0.6381749 v 1.7018 h -0.2794 v -1.7018 z m 1.358899,-0.03175 q 0.3048,0 0.460375,0.149225 0.155575,0.149225 0.155575,0.47625 v 1.108075 h -0.276225 v -1.089025 q 0,-0.409575 -0.381,-0.409575 -0.282575,0 -0.390525,0.15875 -0.10795,0.15875 -0.10795,0.4572 v 0.88265 h -0.2794 v -1.7018 h 0.225425 l 0.04127,0.231775 h 0.01588 q 0.08255,-0.13335 0.2286,-0.19685 0.14605,-0.066675 0.307975,-0.066675 z m 3.35915,1.730375 -0.2921,-0.95885 q -0.04127,-0.130175 -0.07302,-0.254 -0.03175,-0.123825 -0.04445,-0.19685 h -0.0127 q -0.0127,0.073025 -0.04128,0.19685 -0.02858,0.123825 -0.07302,0.257175 l -0.3048,0.955675 h -0.3175 l -0.466725,-1.7018 h 0.288925 l 0.23495,0.90805 q 0.03492,0.136525 0.06668,0.276225 0.03175,0.1397 0.04445,0.231775 h 0.0127 q 0.0095,-0.053975 0.02858,-0.13335 0.01905,-0.079375 0.04127,-0.1651 0.02222,-0.0889 0.04445,-0.15875 l 0.301625,-0.95885 h 0.3048 l 0.2921,0.95885 q 0.03175,0.111125 0.06668,0.238125 0.03492,0.127 0.04763,0.2159 h 0.0127 q 0.0095,-0.079375 0.04127,-0.219075 0.03493,-0.1397 0.07303,-0.28575 l 0.238125,-0.90805 h 0.28575 l -0.473075,1.7018 z m 1.247773,-2.3367999 q 0.0635,0 0.111125,0.04445 0.0508,0.041275 0.0508,0.13335 0,0.092075 -0.0508,0.136525 -0.04763,0.041275 -0.111125,0.041275 -0.06985,0 -0.117475,-0.041275 -0.04763,-0.04445 -0.04763,-0.136525 0,-0.092075 0.04763,-0.13335 0.04763,-0.04445 0.117475,-0.04445 z m 0.136525,0.6381749 v 1.7018 h -0.2794 v -1.7018 z m 1.108073,1.50495 q 0.0635,0 0.130175,-0.00953 0.06668,-0.00953 0.10795,-0.0254 v 0.212725 q -0.04445,0.022225 -0.127,0.034925 -0.08255,0.015875 -0.15875,0.015875 -0.13335,0 -0.24765,-0.04445 -0.111125,-0.047625 -0.180975,-0.161925 -0.06985,-0.1143 -0.06985,-0.320675 v -0.9906 h -0.2413 v -0.13335 L 26.4703,3.2250984 26.581425,2.8631485 h 0.1651 v 0.3905249 h 0.492125 v 0.2159 h -0.492125 v 0.98425 q 0,0.155575 0.07303,0.231775 0.0762,0.073025 0.193675,0.073025 z m 0.85725,-2.2161499 v 0.7080249 q 0,0.127 -0.01587,0.238125 h 0.01905 q 0.08255,-0.130175 0.22225,-0.19685 0.142875,-0.066675 0.307975,-0.066675 0.307975,0 0.46355,0.149225 0.15875,0.14605 0.15875,0.473075 v 1.108075 H 28.74995 v -1.089025 q 0,-0.409575 -0.381,-0.409575 -0.28575,0 -0.3937,0.161925 -0.104775,0.15875 -0.104775,0.4572 v 0.879475 h -0.2794 V 2.5424735 Z m 2.54635,0.14605 h 0.6477 q 0.422275,0 0.64135,0.127 0.219075,0.127 0.219075,0.4349749 0,0.200025 -0.111125,0.333375 -0.111125,0.130175 -0.320675,0.168275 v 0.015875 q 0.142875,0.0254 0.257175,0.085725 0.117475,0.060325 0.18415,0.17145 0.06668,0.111125 0.06668,0.28575 0,0.307975 -0.212725,0.47625 -0.20955,0.168275 -0.574675,0.168275 h -0.796925 z m 0.28575,0.9651999 h 0.4191 q 0.288925,0 0.396875,-0.092075 0.111125,-0.09525 0.111125,-0.2794 0,-0.1873249 -0.13335,-0.2666999 -0.130175,-0.08255 -0.4191,-0.08255 h -0.37465 z m 0,0.238125 v 0.822325 h 0.4572 q 0.301625,0 0.4191,-0.117475 0.117475,-0.117475 0.117475,-0.307975 0,-0.1778 -0.123825,-0.28575 -0.12065,-0.111125 -0.434975,-0.111125 z m 2.0193,1.063625 h -0.2794 V 2.5424735 h 0.2794 z m 1.962147,-1.7018 v 1.7018 h -0.2286 l -0.04127,-0.225425 h -0.0127 q -0.08255,0.13335 -0.2286,0.19685 -0.14605,0.060325 -0.31115,0.060325 -0.307975,0 -0.46355,-0.14605 -0.155575,-0.149225 -0.155575,-0.473075 v -1.114425 h 0.282575 v 1.095375 q 0,0.4064 0.377825,0.4064 0.282575,0 0.390525,-0.15875 0.111125,-0.15875 0.111125,-0.4572 v -0.885825 z m 1.196975,-0.03175 q 0.2159,0 0.37465,0.09525 0.15875,0.09525 0.2413,0.269875 0.08573,0.17145 0.08573,0.403225 v 0.168275 h -1.165225 q 0.0063,0.288925 0.14605,0.441325 0.142875,0.149225 0.396875,0.149225 0.161925,0 0.28575,-0.028575 0.127,-0.03175 0.26035,-0.0889 v 0.244475 q -0.130175,0.05715 -0.257175,0.08255 -0.127,0.028575 -0.301625,0.028575 -0.244475,0 -0.428625,-0.098425 -0.18415,-0.098425 -0.288925,-0.2921 -0.1016,-0.193675 -0.1016,-0.479425 0,-0.2794 0.09208,-0.479425 0.09525,-0.200025 0.263525,-0.307975 0.17145,-0.10795 0.396875,-0.10795 z m -0.0032,0.2286 q -0.200025,0 -0.3175,0.130175 -0.1143,0.127 -0.136525,0.3556 h 0.866775 q -0.0032,-0.2159 -0.1016,-0.34925 -0.09842,-0.136525 -0.31115,-0.136525 z m 2.244723,1.03505 q 0,0.24765 -0.18415,0.37465 -0.18415,0.127 -0.4953,0.127 -0.1778,0 -0.307975,-0.028575 -0.127,-0.028575 -0.225425,-0.079375 v -0.254 q 0.1016,0.0508 0.244475,0.09525 0.14605,0.041275 0.295275,0.041275 0.212725,0 0.307975,-0.066675 0.09525,-0.06985 0.09525,-0.18415 0,-0.0635 -0.03493,-0.1143 -0.03493,-0.0508 -0.127,-0.1016 -0.0889,-0.0508 -0.257175,-0.1143 -0.1651,-0.0635 -0.282575,-0.127 -0.117475,-0.0635 -0.180975,-0.1524 -0.0635,-0.0889 -0.0635,-0.2286 0,-0.2159 0.174625,-0.333375 0.1778,-0.117475 0.46355,-0.117475 0.155575,0 0.288925,0.03175 0.136525,0.03175 0.254,0.08255 l -0.09525,0.22225 q -0.10795,-0.04445 -0.225425,-0.0762 -0.117475,-0.03175 -0.2413,-0.03175 -0.17145,0 -0.263525,0.05715 -0.0889,0.053975 -0.0889,0.149225 0,0.073025 0.04127,0.12065 0.04127,0.047625 0.136525,0.09525 0.09842,0.047625 0.26035,0.10795 0.161925,0.060325 0.276225,0.123825 0.1143,0.0635 0.174625,0.155575 0.06032,0.0889 0.06032,0.225425 z m 0.688976,-1.9430999 v 1.2604749 q 0,0.0508 -0.0063,0.13335 -0.0032,0.08255 -0.0064,0.142875 h 0.0127 q 0.01905,-0.0254 0.05715,-0.073025 0.0381,-0.047625 0.0762,-0.09525 0.04127,-0.0508 0.06985,-0.08255 l 0.542925,-0.574675 h 0.327025 l -0.688975,0.727075 0.7366,0.974725 h -0.33655 l -0.59055,-0.79375 -0.193675,0.168275 v 0.625475 H 38.535296 V 2.5424735 Z m 1.152527,0.7111999 h 0.29845 l 0.3683,0.968375 q 0.04763,0.130175 0.08573,0.244475 0.0381,0.1143 0.05715,0.219075 h 0.0127 q 0.01905,-0.079375 0.06033,-0.206375 0.04127,-0.130175 0.08572,-0.26035 l 0.346075,-0.9652 h 0.301625 l -0.733425,1.93675 q -0.09208,0.2413 -0.231775,0.384175 -0.1397,0.142875 -0.38735,0.142875 -0.0762,0 -0.13335,-0.00953 -0.05715,-0.00635 -0.09842,-0.015875 v -0.22225 q 0.03493,0.00635 0.08255,0.0127 0.0508,0.00635 0.104775,0.00635 0.14605,0 0.23495,-0.08255 0.0889,-0.08255 0.142875,-0.219075 l 0.0889,-0.225425 z"
       id="text"
       style="font-size:3.175px;font-family:'Noto Sans';-inkscape-font-specification:'Noto Sans';fill:#ffffff;stroke:#ffffff;stroke-width:0.176389;stroke-linejoin:round"
       inkscape:label="text"
       aria-label="Sign in with Bluesky" /><path
       d="m 5.4155426,2.1370388 c 0.485341,0.4138246 1.007381,1.2528887 1.199047,1.7031792 0.191682,-0.4502574 0.713693,-1.2893629 1.199048,-1.7031792 0.350197,-0.2985994 0.917607,-0.5296386 0.917607,0.2055404 0,0.1468253 -0.07412,1.2334081 -0.117592,1.4098106 -0.151106,0.6132971 -0.701736,0.7697217 -1.19153,0.6750463 0.85615,0.1654933 1.073947,0.7136675 0.60359,1.2618412 -0.893301,1.0410897 -1.283933,-0.261213 -1.384073,-0.5949104 -0.01835,-0.061175 -0.02693,-0.089793 -0.02706,-0.065458 -1.27e-4,-0.024336 -0.0087,0.00428 -0.02706,0.065459 -0.100095,0.3336966 -0.49072,1.6360326 -1.384072,0.5949096 -0.470364,-0.5481737 -0.252575,-1.096381 0.60359,-1.2618412 -0.489808,0.094675 -1.040445,-0.06175 -1.19153,-0.6750463 -0.04347,-0.176419 -0.117591,-1.263002 -0.117591,-1.4098106 0,-0.735179 0.567424,-0.5041398 0.917606,-0.2055404 z"
       fill="#1185fe"
       id="path1"
       style="display:inline;fill:#ffffff;fill-opacity:1;stroke-width:0.00777847"
       inkscape:label="butterfly" /></g></svg>
